<?xml version="1.0" standalone="no"?><svg xmlns="http://www.w3.org/2000/svg" viewBox="0 0 1440 320"><path fill="#8b39ef" fill-opacity="1" d="M0,224L30,213.3C60,203,120,181,180,149.3C240,117,300,75,360,69.3C420,64,480,96,540,128C600,160,660,192,720,186.7C780,181,840,139,900,128C960,117,1020,139,1080,128C1140,117,1200,75,1260,90.7C1320,107,1380,181,1410,218.7L1440,256L1440,0L1410,0C1380,0,1320,0,1260,0C1200,0,1140,0,1080,0C1020,0,960,0,900,0C840,0,780,0,720,0C660,0,600,0,540,0C480,0,420,0,360,0C300,0,240,0,180,0C120,0,60,0,30,0L0,0Z"></path></svg>