<?xml version="1.0" encoding="UTF-8" standalone="no"?>
<svg
   viewBox="0 0 1440 320"
   version="1.1"
   id="svg4"
   sodipodi:docname="wave-down - Copy.svg"
   inkscape:version="1.2.1 (9c6d41e410, 2022-07-14)"
   xmlns:inkscape="http://www.inkscape.org/namespaces/inkscape"
   xmlns:sodipodi="http://sodipodi.sourceforge.net/DTD/sodipodi-0.dtd"
   xmlns="http://www.w3.org/2000/svg"
   xmlns:svg="http://www.w3.org/2000/svg">
  <defs
     id="defs8" />
  <sodipodi:namedview
     id="namedview6"
     pagecolor="#ffffff"
     bordercolor="#000000"
     borderopacity="0.25"
     inkscape:showpageshadow="2"
     inkscape:pageopacity="0.0"
     inkscape:pagecheckerboard="0"
     inkscape:deskcolor="#d1d1d1"
     showgrid="false"
     inkscape:zoom="0.84027778"
     inkscape:cx="862.21487"
     inkscape:cy="161.2562"
     inkscape:window-width="1366"
     inkscape:window-height="706"
     inkscape:window-x="-8"
     inkscape:window-y="-8"
     inkscape:window-maximized="1"
     inkscape:current-layer="svg4" />
  <path
     fill="#0099ff"
     fill-opacity="1"
     d="M -1.4197724e-6,64.000001 19.999999,96.000001 C 39.999999,128 79.999999,192 120,186.7 160,181 200,107 240,112 c 40,5 80,91 120,117.3 40,26.7 80.00001,-5.3 120.00001,-42.6 40,-37.7 80,-79.7 120,-74.7 C 640,117 680,171 720,181.3 760,192 800,160 840,154.7 c 40,-5.7 80,16.3 120,0 40,-15.7 80,-69.699999 120,-85.399999 40,-16.3 80,5.7 120,21.4 C 1240,107 1280,117 1320,133.3 c 40,15.7 80,37.7 100,48 l 20,10.7 v 127.99999 h -20 c -20,0 -60,0 -100,0 -40,0 -80,0 -120,0 -40,0 -80,0 -120,0 -40,0 -80,0 -120,0 -40,0 -80,0 -120,0 -40,0 -80,0 -120,0 -40,0 -80,0 -119.99999,0 -40,0 -80,0 -120,0 -40,0 -80.00001,0 -120.00001,0 -40,0 -80,0 -120,0 -40,0 -80,0 -120,0 -40.000001,0 -80.000001,0 -100.000001,0 H -1.4197724e-6 Z"
     id="path2" />
</svg>
