<?xml version="1.0" encoding="UTF-8" standalone="no"?>
<svg
   viewBox="0 0 1440 320"
   version="1.1"
   id="svg4"
   sodipodi:docname="wave-down.svg"
   inkscape:version="1.2.1 (9c6d41e410, 2022-07-14)"
   xmlns:inkscape="http://www.inkscape.org/namespaces/inkscape"
   xmlns:sodipodi="http://sodipodi.sourceforge.net/DTD/sodipodi-0.dtd"
   xmlns="http://www.w3.org/2000/svg"
   xmlns:svg="http://www.w3.org/2000/svg">
  <defs
     id="defs8" />
  <sodipodi:namedview
     id="namedview6"
     pagecolor="#ffffff"
     bordercolor="#000000"
     borderopacity="0.25"
     inkscape:showpageshadow="2"
     inkscape:pageopacity="0.0"
     inkscape:pagecheckerboard="0"
     inkscape:deskcolor="#d1d1d1"
     showgrid="false"
     inkscape:zoom="0.84027778"
     inkscape:cx="720.59504"
     inkscape:cy="160.06612"
     inkscape:window-width="1366"
     inkscape:window-height="706"
     inkscape:window-x="-8"
     inkscape:window-y="-8"
     inkscape:window-maximized="1"
     inkscape:current-layer="svg4" />
  <path
     fill="#8b39ef"
     fill-opacity="1"
     d="m 1440,319.55926 -20,-32 c -20,-32 -60,-96 -100,-90.7 -40,5.7 -80,79.7 -120,74.7 -40,-5 -80,-91 -120,-117.3 -40,-26.7 -80.00001,5.3 -120.00001,42.6 -40,37.7 -80,79.7 -120,74.7 -39.99999,-5 -79.99999,-59 -119.99999,-69.3 -40,-10.7 -80,21.3 -120,26.6 -40,5.7 -80,-16.3 -120,0 -40,15.7 -80,69.7 -120,85.4 -40,16.3 -80,-5.7 -120,-21.4 -40,-16.3 -80,-26.3 -120,-42.6 -40.000004,-15.7 -80.000004,-37.7 -100.000004,-48 L -3.5802277e-6,191.55926 V 63.559264 H 19.999996 c 20,0 60,0 100.000004,0 40,0 80,0 120,0 40,0 80,0 120,0 40,0 80,0 120,0 40,0 80,0 120,0 40,0 80,0 120,0 40,0 80,0 119.99999,0 40,0 80,0 120,0 40,0 80.00001,0 120.00001,0 40,0 80,0 120,0 40,0 80,0 120,0 40,0 80,0 100,0 h 20 z"
     id="path2" />
</svg>
