<?xml version="1.0" encoding="UTF-8" standalone="no"?>
<svg
   viewBox="0,0,256,256"
   width="50px"
   height="50px"
   fill-rule="nonzero"
   version="1.1"
   id="svg8"
   sodipodi:docname="linkedin.svg"
   inkscape:version="1.2.1 (9c6d41e410, 2022-07-14)"
   xmlns:inkscape="http://www.inkscape.org/namespaces/inkscape"
   xmlns:sodipodi="http://sodipodi.sourceforge.net/DTD/sodipodi-0.dtd"
   xmlns="http://www.w3.org/2000/svg"
   xmlns:svg="http://www.w3.org/2000/svg">
  <defs
     id="defs12" />
  <sodipodi:namedview
     id="namedview10"
     pagecolor="#ffffff"
     bordercolor="#000000"
     borderopacity="0.25"
     inkscape:showpageshadow="2"
     inkscape:pageopacity="0.0"
     inkscape:pagecheckerboard="0"
     inkscape:deskcolor="#d1d1d1"
     showgrid="false"
     inkscape:zoom="10.5"
     inkscape:cx="25.047619"
     inkscape:cy="35.761905"
     inkscape:window-width="1366"
     inkscape:window-height="706"
     inkscape:window-x="-8"
     inkscape:window-y="-8"
     inkscape:window-maximized="1"
     inkscape:current-layer="svg8" />
  <g
     fill="hsl(281, 72%, 46%)"
     fill-rule="nonzero"
     stroke="none"
     stroke-width="1"
     stroke-linecap="butt"
     stroke-linejoin="miter"
     stroke-miterlimit="10"
     stroke-dasharray="none"
     stroke-dashoffset="0"
     font-family="none"
     font-weight="none"
     font-size="none"
     text-anchor="none"
     style="mix-blend-mode:normal"
     id="g6"
     transform="matrix(1.0807454,0,0,1.0807454,-10.091594,-10.091594)">
    <g
       transform="scale(5.12)"
       id="g4">
      <path
         d="M 25,2 C 12.318,2 2,12.317 2,25 2,37.683 12.318,48 25,48 37.682,48 48,37.683 48,25 48,12.317 37.682,2 25,2 Z M 18,35 H 14 V 20 h 4 z M 16,17 c -1.105,0 -2,-0.895 -2,-2 0,-1.105 0.895,-2 2,-2 1.105,0 2,0.895 2,2 0,1.105 -0.895,2 -2,2 z M 37,35 H 33 V 30 27.5 C 33,25.575 31.425,24 29.5,24 27.575,24 26,25.575 26,27.5 V 35 H 22 V 20 h 4 v 1.816 C 27.168,20.694 28.752,20 30.5,20 c 3.59,0 6.5,2.91 6.5,6.5 z"
         id="path2" />
    </g>
  </g>
</svg>
